<?xml version="1.0" encoding="UTF-8" standalone="no"?>
<!DOCTYPE svg PUBLIC "-//W3C//DTD SVG 1.1//EN" "http://www.w3.org/Graphics/SVG/1.1/DTD/svg11.dtd">
<svg version="1.1" xmlns="http://www.w3.org/2000/svg" xmlns:xlink="http://www.w3.org/1999/xlink" preserveAspectRatio="xMidYMid meet" viewBox="0 0 480 480" width="128" height="128"><defs><path d="M394.29 431.96C405.51 431.96 414.61 422.87 414.61 411.65C414.61 338.92 414.61 141.08 414.61 68.35C414.61 57.13 405.51 48.04 394.29 48.04C328.51 48.04 151.49 48.04 85.71 48.04C74.49 48.04 65.39 57.13 65.39 68.35C65.39 141.08 65.39 338.92 65.39 411.65C65.39 422.87 74.49 431.96 85.71 431.96C151.49 431.96 328.51 431.96 394.29 431.96Z" id="a1eAhIhknB"></path><path d="M362.55 165.23C367.64 165.23 371.77 169.36 371.77 174.45C371.77 176.29 371.77 172.61 371.77 174.45C371.77 179.54 367.64 183.67 362.55 183.67C311.69 183.67 168.31 183.67 117.45 183.67C112.36 183.67 108.23 179.54 108.23 174.45C108.23 172.61 108.23 176.29 108.23 174.45C108.23 169.36 112.36 165.23 117.45 165.23C168.31 165.23 311.69 165.23 362.55 165.23Z" id="b3CCaFIda"></path><path d="M362.55 370.56C367.64 370.56 371.77 366.43 371.77 361.34C371.77 359.5 371.77 363.18 371.77 361.34C371.77 356.25 367.64 352.12 362.55 352.12C311.69 352.12 168.31 352.12 117.45 352.12C112.36 352.12 108.23 356.25 108.23 361.34C108.23 363.18 108.23 359.5 108.23 361.34C108.23 366.43 112.36 370.56 117.45 370.56C168.31 370.56 311.69 370.56 362.55 370.56Z" id="cjuE12iru"></path><path d="M362.55 101.85C367.64 101.85 371.77 105.98 371.77 111.07C371.77 112.91 371.77 109.22 371.77 111.07C371.77 116.16 367.64 120.29 362.55 120.29C311.69 120.29 168.31 120.29 117.45 120.29C112.36 120.29 108.23 116.16 108.23 111.07C108.23 109.22 108.23 112.91 108.23 111.07C108.23 105.98 112.36 101.85 117.45 101.85C168.31 101.85 311.69 101.85 362.55 101.85Z" id="f5cMuobFXf"></path><path d="M362.55 308.26C367.64 308.26 371.77 304.13 371.77 299.04C371.77 297.2 371.77 300.89 371.77 299.04C371.77 293.95 367.64 289.82 362.55 289.82C311.69 289.82 168.31 289.82 117.45 289.82C112.36 289.82 108.23 293.95 108.23 299.04C108.23 300.89 108.23 297.2 108.23 299.04C108.23 304.13 112.36 308.26 117.45 308.26C168.31 308.26 311.69 308.26 362.55 308.26Z" id="a3zD8Wk9Du"></path><path d="M362.55 245.96C367.64 245.96 371.77 241.84 371.77 236.75C371.77 234.9 371.77 238.59 371.77 236.75C371.77 231.66 367.64 227.53 362.55 227.53C311.69 227.53 168.31 227.53 117.45 227.53C112.36 227.53 108.23 231.66 108.23 236.75C108.23 238.59 108.23 234.9 108.23 236.75C108.23 241.84 112.36 245.96 117.45 245.96C168.31 245.96 311.69 245.96 362.55 245.96Z" id="biqOOEApj"></path><path d="M101.18 204.27C101.18 210.86 96.08 216.2 89.79 216.2C83.51 216.2 78.41 210.86 78.41 204.27C78.41 197.69 83.51 192.34 89.79 192.34C96.08 192.34 101.18 197.69 101.18 204.27Z" id="bsEt5fLMD"></path><path d="M101.18 141.98C101.18 148.56 96.08 153.91 89.79 153.91C83.51 153.91 78.41 148.56 78.41 141.98C78.41 135.39 83.51 130.05 89.79 130.05C96.08 130.05 101.18 135.39 101.18 141.98Z" id="bZ0TT67dr"></path><path d="M101.18 268.74C101.18 275.32 96.08 280.67 89.79 280.67C83.51 280.67 78.41 275.32 78.41 268.74C78.41 262.16 83.51 256.81 89.79 256.81C96.08 256.81 101.18 262.16 101.18 268.74Z" id="anXG9HO2z"></path><path d="M101.18 333.21C101.18 339.79 96.08 345.14 89.79 345.14C83.51 345.14 78.41 339.79 78.41 333.21C78.41 326.62 83.51 321.28 89.79 321.28C96.08 321.28 101.18 326.62 101.18 333.21Z" id="a3Eavwlp9I"></path></defs><g><g><g><g><filter id="shadow15635992" x="56.39" y="39.04" width="368.22" height="402.92" filterUnits="userSpaceOnUse" primitiveUnits="userSpaceOnUse"><feFlood></feFlood><feComposite in2="SourceAlpha" operator="in"></feComposite><feGaussianBlur stdDeviation="1"></feGaussianBlur><feOffset dx="1" dy="1" result="afterOffset"></feOffset><feFlood flood-color="#000000" flood-opacity="0.5"></feFlood><feComposite in2="afterOffset" operator="in"></feComposite><feMorphology operator="dilate" radius="1"></feMorphology><feComposite in2="SourceAlpha" operator="out"></feComposite></filter><path d="M394.29 431.96C405.51 431.96 414.61 422.87 414.61 411.65C414.61 338.92 414.61 141.08 414.61 68.35C414.61 57.13 405.51 48.04 394.29 48.04C328.51 48.04 151.49 48.04 85.71 48.04C74.49 48.04 65.39 57.13 65.39 68.35C65.39 141.08 65.39 338.92 65.39 411.65C65.39 422.87 74.49 431.96 85.71 431.96C151.49 431.96 328.51 431.96 394.29 431.96Z" id="a42dDR7NP" fill="white" fill-opacity="1" filter="url(#shadow15635992)"></path></g><use xlink:href="#a1eAhIhknB" opacity="1" fill="#ffffff" fill-opacity="1"></use><g><use xlink:href="#a1eAhIhknB" opacity="1" fill-opacity="0" stroke="#4b4b4b" stroke-width="7" stroke-opacity="1"></use></g></g><g><use xlink:href="#b3CCaFIda" opacity="1" fill="#565656" fill-opacity="1"></use></g><g><use xlink:href="#cjuE12iru" opacity="1" fill="#565656" fill-opacity="1"></use></g><g><use xlink:href="#f5cMuobFXf" opacity="1" fill="#565656" fill-opacity="1"></use></g><g><use xlink:href="#a3zD8Wk9Du" opacity="1" fill="#565656" fill-opacity="1"></use></g><g><use xlink:href="#biqOOEApj" opacity="1" fill="#565656" fill-opacity="1"></use></g><g><use xlink:href="#bsEt5fLMD" opacity="1" fill="#565656" fill-opacity="1"></use></g><g><use xlink:href="#bZ0TT67dr" opacity="1" fill="#565656" fill-opacity="1"></use></g><g><use xlink:href="#anXG9HO2z" opacity="1" fill="#565656" fill-opacity="1"></use></g><g><use xlink:href="#a3Eavwlp9I" opacity="1" fill="#565656" fill-opacity="1"></use></g></g></g></svg>